<?xml version="1.0" encoding="UTF-8"?>
<svg id="Layer_1" data-name="Layer 1" xmlns="http://www.w3.org/2000/svg" viewBox="0 0 574.19 181.66">
  <defs>
    <style>
      .cls-1 {
        fill: #231f20;
      }
    </style>
  </defs>
  <path class="cls-1" d="m56.29,53.69h8.74c1.66,0,3,1.33,3,2.98v36.17c0,.83.67,1.5,1.5,1.5h20.5c1.66,0,3,1.34,3,3v6.54c0,1.66-1.34,3-3,3h-33.75c-1.66,0-3-1.34-3-3v-47.19c0-1.66,1.34-3,3-3Z"/>
  <path class="cls-1" d="m101.89,53.69h34.97c1.66,0,3,1.34,3,3v6.54c0,1.66-1.34,3-3,3h-21.88c-.83,0-1.5.67-1.5,1.5v5.06c0,.83.67,1.5,1.5,1.5h19.22c1.66,0,3,1.34,3,3v5.63c0,1.66-1.34,3-3,3h-19.22c-.83,0-1.5.67-1.5,1.5v5.44c0,.83.67,1.5,1.5,1.5h22.26c1.66,0,3,1.34,3,3v6.54c0,1.66-1.34,3-3,3h-35.35c-1.66,0-3-1.34-3-3v-47.19c0-1.66,1.34-3,3-3Z"/>
  <path class="cls-1" d="m145.87,80.43v-.15c0-15.5,12.16-27.66,28.65-27.66,8,0,14,2.12,19.09,5.78,1.4,1.01,1.62,3.01.52,4.34l-4.85,5.83c-1.01,1.21-2.76,1.4-4.06.51-3.11-2.13-6.39-3.31-10.62-3.31-7.67,0-13.6,6.46-13.6,14.59v.15c0,8.59,6,14.74,14.44,14.74,2.7,0,4.92-.43,6.79-1.27,1.06-.47,1.72-1.56,1.72-2.72v-3.17c0-.83-.67-1.5-1.5-1.5h-5.99c-1.66,0-3-1.34-3-3v-4.79c0-1.66,1.34-3,3-3h18.47c1.66,0,3,1.34,3,3v18.45c0,1.63-.79,3.16-2.12,4.1-5.41,3.82-12.49,6.59-20.98,6.59-16.57,0-28.95-11.4-28.95-27.51Z"/>
  <path class="cls-1" d="m224.93,53.31h7.58c2.01,0,3.82,1.2,4.61,3.05l19.59,46.35c.84,1.98-.62,4.17-2.76,4.17h-7.92c-2.03,0-3.86-1.23-4.63-3.11l-2.1-5.14c-.31-.75-1.04-1.24-1.85-1.24h-17.82c-.82,0-1.55.5-1.86,1.26l-2.04,5.1c-.76,1.9-2.6,3.14-4.64,3.14h-7.59c-2.15,0-3.6-2.19-2.76-4.17l19.59-46.35c.78-1.85,2.6-3.05,4.61-3.05Zm9.07,31.23l-4.47-11.4c-.33-.84-1.53-.85-1.86,0l-4.52,11.4c-.26.66.22,1.37.93,1.37h8.99c.7,0,1.19-.71.93-1.36Z"/>
  <path class="cls-1" d="m276.25,92.84v-36.16c0-1.66-1.34-3-3-3h-8.74c-1.66,0-3,1.34-3,3v47.19c0,1.66,1.34,3,3,3h23.78c1.43,0,2.79-.61,3.74-1.68l7.43-8.36c.86-.97.17-2.5-1.12-2.5h-20.58c-.83,0-1.5-.67-1.5-1.5Z"/>
  <path class="cls-1" d="m338.68,102.02v-.15c0-15.27,12.31-27.66,28.72-27.66s28.57,12.23,28.57,27.51v.15c0,15.27-12.31,27.66-28.72,27.66s-28.57-12.23-28.57-27.51Zm42.25,0v-.15c0-7.67-5.55-14.36-13.68-14.36s-13.45,6.54-13.45,14.21v.15c0,7.67,5.55,14.36,13.6,14.36s13.53-6.54,13.53-14.21Z"/>
  <path class="cls-1" d="m401.34,102.02v-.15c0-15.27,12.31-27.66,28.72-27.66s28.57,12.23,28.57,27.51v.15c0,15.27-12.31,27.66-28.72,27.66s-28.57-12.23-28.57-27.51Zm42.25,0v-.15c0-7.67-5.55-14.36-13.68-14.36s-13.45,6.54-13.45,14.21v.15c0,7.67,5.55,14.36,13.6,14.36s13.53-6.54,13.53-14.21Z"/>
  <path class="cls-1" d="m480.75,100.88c-.54-.83-1.84-.45-1.84.55v24.04c0,1.66-1.34,3-3,3h-8.44c-1.66,0-3-1.34-3-3v-47.19c0-1.66,1.34-3,3-3h9.79c1.74,0,3.35.9,4.26,2.38l10.37,16.83c.39.63,1.31.63,1.7,0l10.37-16.83c.91-1.48,2.52-2.38,4.26-2.38h9.79c1.66,0,3,1.34,3,3v47.19c0,1.66-1.34,3-3,3h-8.67c-1.66,0-3-1.34-3-3v-24.19c0-.99-1.29-1.38-1.84-.55l-10.66,16.32c-.59.91-1.92.91-2.51,0l-10.58-16.18Z"/>
  <path class="cls-1" d="m334.1,75.27h-31.95c-1.43,0-2.79.61-3.74,1.68l-7.36,8.29c-.86.97-.17,2.5,1.12,2.5h22.34c.86,0,1.32,1.02.75,1.66l-23.93,26.93c-.81.92-1.26,2.1-1.26,3.32v5.81c0,1.66,1.34,3,3,3h41.49c1.66,0,3-1.34,3-3v-6.46c0-1.66-1.34-3-3-3h-21.9c-.86,0-1.32-1.02-.75-1.66l23.93-26.93c.81-.92,1.26-2.1,1.26-3.32v-5.81c0-1.66-1.34-3-3-3Z"/>
</svg>